<svg width="1280" height="720" viewBox="0 0 1280 720" fill="none" xmlns="http://www.w3.org/2000/svg">
<g clip-path="url(#clip0_11_55)">
<rect width="1280" height="720" fill="#F0F2F6"/>
<rect width="80" height="720" fill="#1B365D"/>
<path d="M38 395H32.6667C31.9594 395 31.2811 395.281 30.781 395.781C30.281 396.281 30 396.959 30 397.667V403M38 395H51.3333C52.0406 395 52.7189 395.281 53.219 395.781C53.719 396.281 54 396.959 54 397.667V403M38 395V419M30 403V416.333C30 417.041 30.281 417.719 30.781 418.219C31.2811 418.719 31.9594 419 32.6667 419H38M30 403H54M54 403V416.333C54 417.041 53.719 417.719 53.219 418.219C52.7189 418.719 52.0406 419 51.3333 419H38" stroke="white" stroke-width="3.5" stroke-linecap="round" stroke-linejoin="round"/>
<g opacity="0.5">
<path d="M38 176.333V163H46V176.333M30 159L42 149.667L54 159V173.667C54 174.374 53.719 175.052 53.219 175.552C52.7189 176.052 52.0406 176.333 51.3333 176.333H32.6667C31.9594 176.333 31.2811 176.052 30.781 175.552C30.281 175.052 30 174.374 30 173.667V159Z" stroke="white" stroke-width="4" stroke-linecap="round" stroke-linejoin="round"/>
</g>
<g opacity="0.5">
<path d="M25.5 285.75V271.5H35.25V285.75H25.5Z" fill="white"/>
<path d="M42.75 276.75V271.5H52.5V276.75H42.75Z" fill="white"/>
<path d="M42.75 298.5V284.25H52.5V298.5H42.75Z" fill="white"/>
<path d="M25.5 298.5V293.25H35.25V298.5H25.5Z" fill="white"/>
<path fill-rule="evenodd" clip-rule="evenodd" d="M40.25 270C40.25 269.448 40.6977 269 41.25 269H54C54.5523 269 55 269.448 55 270V278.25C55 278.802 54.5523 279.25 54 279.25H41.25C40.6977 279.25 40.25 278.802 40.25 278.25V270ZM42.75 271.5V276.75H52.5V271.5H42.75ZM40.25 282.75C40.25 282.198 40.6977 281.75 41.25 281.75H54C54.5523 281.75 55 282.198 55 282.75V300C55 300.552 54.5523 301 54 301H41.25C40.6977 301 40.25 300.552 40.25 300V282.75ZM42.75 284.25V298.5H52.5V284.25H42.75Z" fill="white"/>
<path fill-rule="evenodd" clip-rule="evenodd" d="M36.75 269H24C23.4477 269 23 269.448 23 270V287.25C23 287.802 23.4477 288.25 24 288.25H36.75C37.3023 288.25 37.75 287.802 37.75 287.25V270C37.75 269.448 37.3023 269 36.75 269ZM25.5 271.5V285.75H35.25V271.5H25.5Z" fill="white"/>
<path fill-rule="evenodd" clip-rule="evenodd" d="M36.75 290.75H24C23.4477 290.75 23 291.198 23 291.75V300C23 300.552 23.4477 301 24 301H36.75C37.3023 301 37.75 300.552 37.75 300V291.75C37.75 291.198 37.3023 290.75 36.75 290.75ZM25.5 293.25V298.5H35.25V293.25H25.5Z" fill="white"/>
</g>
<path d="M122.449 31.6364L127.371 47.108H127.56L132.491 31.6364H137.264L130.244 52H124.696L117.666 31.6364H122.449ZM139.636 52V36.7273H143.871V52H139.636ZM141.763 34.7585C141.134 34.7585 140.594 34.5497 140.143 34.1321C139.699 33.7079 139.477 33.2008 139.477 32.6108C139.477 32.0275 139.699 31.527 140.143 31.1094C140.594 30.6851 141.134 30.473 141.763 30.473C142.393 30.473 142.93 30.6851 143.374 31.1094C143.825 31.527 144.05 32.0275 144.05 32.6108C144.05 33.2008 143.825 33.7079 143.374 34.1321C142.93 34.5497 142.393 34.7585 141.763 34.7585ZM159.972 41.0824L156.094 41.321C156.028 40.9896 155.885 40.6913 155.667 40.4261C155.448 40.1544 155.159 39.9389 154.801 39.7798C154.45 39.6141 154.029 39.5312 153.539 39.5312C152.882 39.5312 152.329 39.6705 151.878 39.9489C151.427 40.2206 151.202 40.5852 151.202 41.0426C151.202 41.4072 151.348 41.7154 151.64 41.9673C151.931 42.2192 152.432 42.4214 153.141 42.5739L155.905 43.1307C157.39 43.4356 158.497 43.9261 159.226 44.6023C159.955 45.2784 160.32 46.1667 160.32 47.267C160.32 48.268 160.025 49.1463 159.435 49.902C158.852 50.6577 158.05 51.2476 157.029 51.6719C156.015 52.0895 154.845 52.2983 153.519 52.2983C151.497 52.2983 149.886 51.8774 148.686 51.0355C147.493 50.187 146.794 49.0336 146.588 47.5753L150.755 47.3565C150.881 47.973 151.185 48.4437 151.669 48.7685C152.153 49.0866 152.773 49.2457 153.529 49.2457C154.271 49.2457 154.868 49.1032 155.319 48.8182C155.776 48.5265 156.008 48.152 156.015 47.6946C156.008 47.3101 155.846 46.9953 155.527 46.75C155.209 46.4981 154.719 46.3059 154.056 46.1733L151.411 45.6463C149.919 45.348 148.809 44.831 148.08 44.0952C147.357 43.3594 146.996 42.4214 146.996 41.2812C146.996 40.3002 147.261 39.455 147.792 38.7457C148.328 38.0365 149.081 37.4896 150.049 37.1051C151.023 36.7206 152.163 36.5284 153.469 36.5284C155.398 36.5284 156.916 36.9361 158.023 37.7514C159.137 38.5668 159.786 39.6771 159.972 41.0824ZM167.342 52.2884C166.368 52.2884 165.5 52.1193 164.737 51.7812C163.975 51.4366 163.372 50.9295 162.928 50.2599C162.49 49.5838 162.271 48.742 162.271 47.7344C162.271 46.8859 162.427 46.1733 162.739 45.5966C163.05 45.0199 163.474 44.5559 164.011 44.2045C164.548 43.8532 165.158 43.5881 165.841 43.4091C166.53 43.2301 167.253 43.1042 168.009 43.0312C168.897 42.9384 169.613 42.8523 170.156 42.7727C170.7 42.6866 171.094 42.5606 171.339 42.3949C171.585 42.2292 171.707 41.9839 171.707 41.6591V41.5994C171.707 40.9697 171.509 40.4825 171.111 40.1378C170.72 39.7931 170.163 39.6207 169.44 39.6207C168.678 39.6207 168.071 39.7898 167.621 40.1278C167.17 40.4593 166.872 40.8769 166.726 41.3807L162.808 41.0625C163.007 40.1345 163.398 39.3324 163.982 38.6562C164.565 37.9735 165.317 37.4498 166.239 37.0852C167.167 36.714 168.241 36.5284 169.46 36.5284C170.309 36.5284 171.121 36.6278 171.896 36.8267C172.679 37.0256 173.371 37.3338 173.974 37.7514C174.584 38.169 175.065 38.706 175.416 39.3622C175.768 40.0118 175.943 40.7907 175.943 41.6989V52H171.926V49.8821H171.807C171.562 50.3594 171.233 50.7803 170.822 51.1449C170.411 51.5028 169.918 51.7846 169.341 51.9901C168.764 52.1889 168.098 52.2884 167.342 52.2884ZM168.555 49.3651C169.179 49.3651 169.729 49.2424 170.206 48.9972C170.683 48.7453 171.058 48.4072 171.33 47.983C171.601 47.5587 171.737 47.0781 171.737 46.5412V44.9205C171.605 45.0066 171.422 45.0862 171.19 45.1591C170.965 45.2254 170.71 45.2884 170.425 45.348C170.14 45.401 169.855 45.4508 169.57 45.4972C169.285 45.5369 169.026 45.5734 168.794 45.6065C168.297 45.6795 167.863 45.7955 167.491 45.9545C167.12 46.1136 166.832 46.3291 166.626 46.6009C166.421 46.866 166.318 47.1974 166.318 47.5952C166.318 48.1719 166.527 48.6127 166.945 48.9176C167.369 49.2159 167.906 49.3651 168.555 49.3651ZM166.776 34.848L164.419 34.8182C164.419 33.5521 164.731 32.581 165.354 31.9048C165.983 31.2287 166.749 30.8873 167.651 30.8807C168.115 30.8807 168.512 30.9569 168.844 31.1094C169.182 31.2552 169.483 31.4276 169.749 31.6264C170.02 31.8253 170.279 32.0009 170.524 32.1534C170.769 32.2992 171.035 32.3722 171.32 32.3722C171.704 32.3655 171.996 32.223 172.195 31.9446C172.4 31.6596 172.503 31.2884 172.503 30.831L174.82 30.9006C174.806 32.1534 174.488 33.1212 173.865 33.804C173.242 34.4801 172.483 34.8215 171.588 34.8281C171.091 34.8281 170.673 34.7552 170.335 34.6094C170.004 34.4569 169.712 34.2846 169.46 34.0923C169.208 33.8935 168.963 33.7178 168.724 33.5653C168.486 33.4129 168.217 33.3366 167.919 33.3366C167.574 33.3366 167.296 33.4725 167.084 33.7443C166.878 34.0161 166.776 34.384 166.776 34.848ZM186.13 52.2983C184.585 52.2983 183.25 51.9702 182.123 51.3139C181.003 50.651 180.138 49.7296 179.528 48.5497C178.918 47.3632 178.613 45.9877 178.613 44.4233C178.613 42.8456 178.918 41.4669 179.528 40.2869C180.138 39.1004 181.003 38.179 182.123 37.5227C183.25 36.8598 184.585 36.5284 186.13 36.5284C187.674 36.5284 189.007 36.8598 190.127 37.5227C191.254 38.179 192.122 39.1004 192.732 40.2869C193.342 41.4669 193.647 42.8456 193.647 44.4233C193.647 45.9877 193.342 47.3632 192.732 48.5497C192.122 49.7296 191.254 50.651 190.127 51.3139C189.007 51.9702 187.674 52.2983 186.13 52.2983ZM186.15 49.017C186.853 49.017 187.439 48.8182 187.91 48.4205C188.38 48.0161 188.735 47.4659 188.974 46.7699C189.219 46.0739 189.342 45.2817 189.342 44.3935C189.342 43.5052 189.219 42.7131 188.974 42.017C188.735 41.321 188.38 40.7708 187.91 40.3665C187.439 39.9621 186.853 39.7599 186.15 39.7599C185.441 39.7599 184.844 39.9621 184.36 40.3665C183.883 40.7708 183.522 41.321 183.276 42.017C183.038 42.7131 182.918 43.5052 182.918 44.3935C182.918 45.2817 183.038 46.0739 183.276 46.7699C183.522 47.4659 183.883 48.0161 184.36 48.4205C184.844 48.8182 185.441 49.017 186.15 49.017ZM202.961 52V31.6364H216.683V35.1861H207.267V40.0384H215.977V43.5881H207.267V48.4503H216.723V52H202.961ZM223.566 36.7273L226.37 42.0668L229.244 36.7273H233.589L229.164 44.3636L233.708 52H229.383L226.37 46.7202L223.407 52H219.032L223.566 44.3636L219.191 36.7273H223.566ZM242.518 52.2983C240.947 52.2983 239.594 51.9801 238.461 51.3438C237.334 50.7008 236.466 49.7926 235.856 48.6193C235.246 47.4394 234.941 46.044 234.941 44.4332C234.941 42.8622 235.246 41.4834 235.856 40.2969C236.466 39.1103 237.324 38.1856 238.431 37.5227C239.545 36.8598 240.851 36.5284 242.349 36.5284C243.356 36.5284 244.294 36.6908 245.163 37.0156C246.038 37.3338 246.8 37.8144 247.45 38.4574C248.106 39.1004 248.616 39.9091 248.981 40.8835C249.345 41.8513 249.528 42.9848 249.528 44.2841V45.4474H236.631V42.8224H245.54C245.54 42.2126 245.408 41.6723 245.143 41.2017C244.878 40.7311 244.51 40.3632 244.039 40.098C243.575 39.8262 243.035 39.6903 242.418 39.6903C241.775 39.6903 241.205 39.8395 240.708 40.1378C240.218 40.4295 239.833 40.8239 239.555 41.321C239.276 41.8116 239.134 42.3584 239.127 42.9616V45.4574C239.127 46.2131 239.266 46.866 239.545 47.4162C239.83 47.9664 240.231 48.3906 240.748 48.6889C241.265 48.9872 241.878 49.1364 242.587 49.1364C243.058 49.1364 243.489 49.0701 243.88 48.9375C244.271 48.8049 244.606 48.6061 244.884 48.3409C245.163 48.0758 245.375 47.7509 245.521 47.3665L249.438 47.625C249.239 48.5663 248.832 49.3883 248.215 50.0909C247.605 50.7869 246.817 51.3305 245.849 51.7216C244.888 52.1061 243.777 52.2983 242.518 52.2983ZM259.192 52.2983C257.628 52.2983 256.282 51.9669 255.156 51.304C254.035 50.6345 253.174 49.7064 252.57 48.5199C251.974 47.3333 251.675 45.9678 251.675 44.4233C251.675 42.8589 251.977 41.4867 252.58 40.3068C253.19 39.1203 254.055 38.1955 255.175 37.5327C256.296 36.8632 257.628 36.5284 259.173 36.5284C260.505 36.5284 261.672 36.7704 262.673 37.2543C263.674 37.7382 264.466 38.4176 265.049 39.2926C265.632 40.1676 265.954 41.1951 266.013 42.375H262.016C261.904 41.6127 261.605 40.9995 261.121 40.5355C260.644 40.0649 260.018 39.8295 259.242 39.8295C258.586 39.8295 258.013 40.0085 257.522 40.3665C257.038 40.7178 256.66 41.2315 256.388 41.9077C256.117 42.5838 255.981 43.4025 255.981 44.3636C255.981 45.3381 256.113 46.1667 256.379 46.8494C256.65 47.5322 257.031 48.0526 257.522 48.4105C258.013 48.7685 258.586 48.9474 259.242 48.9474C259.726 48.9474 260.16 48.848 260.545 48.6491C260.936 48.4503 261.257 48.1619 261.509 47.7841C261.768 47.3996 261.937 46.9389 262.016 46.402H266.013C265.947 47.5687 265.629 48.5961 265.059 49.4844C264.496 50.366 263.717 51.0554 262.722 51.5526C261.728 52.0497 260.551 52.2983 259.192 52.2983ZM278.52 45.4972V36.7273H282.755V52H278.689V49.2259H278.529C278.185 50.1207 277.611 50.84 276.809 51.3835C276.014 51.9271 275.043 52.1989 273.896 52.1989C272.875 52.1989 271.977 51.9669 271.201 51.5028C270.426 51.0388 269.819 50.3793 269.382 49.5241C268.951 48.669 268.732 47.6449 268.725 46.4517V36.7273H272.961V45.696C272.968 46.5975 273.21 47.3101 273.687 47.8338C274.164 48.3575 274.804 48.6193 275.606 48.6193C276.117 48.6193 276.594 48.5033 277.038 48.2713C277.482 48.0327 277.84 47.6813 278.112 47.2173C278.39 46.7533 278.526 46.1799 278.52 45.4972ZM294.267 36.7273V39.9091H285.07V36.7273H294.267ZM287.158 33.0682H291.393V47.3068C291.393 47.6979 291.453 48.0028 291.572 48.2216C291.692 48.4337 291.857 48.5829 292.07 48.669C292.288 48.7552 292.54 48.7983 292.825 48.7983C293.024 48.7983 293.223 48.7817 293.422 48.7486C293.621 48.7088 293.773 48.679 293.879 48.6591L294.545 51.8111C294.333 51.8774 294.035 51.9536 293.651 52.0398C293.266 52.1326 292.799 52.1889 292.249 52.2088C291.228 52.2486 290.333 52.1127 289.564 51.8011C288.802 51.4896 288.208 51.0057 287.784 50.3494C287.36 49.6932 287.151 48.8646 287.158 47.8636V33.0682ZM297.026 52V36.7273H301.262V52H297.026ZM299.154 34.7585C298.524 34.7585 297.984 34.5497 297.533 34.1321C297.089 33.7079 296.867 33.2008 296.867 32.6108C296.867 32.0275 297.089 31.527 297.533 31.1094C297.984 30.6851 298.524 30.473 299.154 30.473C299.784 30.473 300.321 30.6851 300.765 31.1094C301.216 31.527 301.441 32.0275 301.441 32.6108C301.441 33.2008 301.216 33.7079 300.765 34.1321C300.321 34.5497 299.784 34.7585 299.154 34.7585ZM318.894 36.7273L313.554 52H308.782L303.442 36.7273H307.917L311.088 47.6548H311.248L314.409 36.7273H318.894ZM325.006 52.2884C324.032 52.2884 323.164 52.1193 322.401 51.7812C321.639 51.4366 321.036 50.9295 320.592 50.2599C320.154 49.5838 319.935 48.742 319.935 47.7344C319.935 46.8859 320.091 46.1733 320.403 45.5966C320.714 45.0199 321.138 44.5559 321.675 44.2045C322.212 43.8532 322.822 43.5881 323.505 43.4091C324.194 43.2301 324.917 43.1042 325.673 43.0312C326.561 42.9384 327.277 42.8523 327.82 42.7727C328.364 42.6866 328.758 42.5606 329.004 42.3949C329.249 42.2292 329.371 41.9839 329.371 41.6591V41.5994C329.371 40.9697 329.173 40.4825 328.775 40.1378C328.384 39.7931 327.827 39.6207 327.104 39.6207C326.342 39.6207 325.736 39.7898 325.285 40.1278C324.834 40.4593 324.536 40.8769 324.39 41.3807L320.472 41.0625C320.671 40.1345 321.062 39.3324 321.646 38.6562C322.229 37.9735 322.981 37.4498 323.903 37.0852C324.831 36.714 325.905 36.5284 327.124 36.5284C327.973 36.5284 328.785 36.6278 329.56 36.8267C330.343 37.0256 331.035 37.3338 331.638 37.7514C332.248 38.169 332.729 38.706 333.08 39.3622C333.432 40.0118 333.607 40.7907 333.607 41.6989V52H329.59V49.8821H329.471C329.226 50.3594 328.897 50.7803 328.487 51.1449C328.076 51.5028 327.582 51.7846 327.005 51.9901C326.428 52.1889 325.762 52.2884 325.006 52.2884ZM326.219 49.3651C326.843 49.3651 327.393 49.2424 327.87 48.9972C328.347 48.7453 328.722 48.4072 328.994 47.983C329.265 47.5587 329.401 47.0781 329.401 46.5412V44.9205C329.269 45.0066 329.086 45.0862 328.854 45.1591C328.629 45.2254 328.374 45.2884 328.089 45.348C327.804 45.401 327.519 45.4508 327.234 45.4972C326.949 45.5369 326.69 45.5734 326.458 45.6065C325.961 45.6795 325.527 45.7955 325.156 45.9545C324.784 46.1136 324.496 46.3291 324.29 46.6009C324.085 46.866 323.982 47.1974 323.982 47.5952C323.982 48.1719 324.191 48.6127 324.609 48.9176C325.033 49.2159 325.57 49.3651 326.219 49.3651ZM352.89 40.1378V43.4986H343.603V40.1378H352.89ZM363.059 52V31.6364H376.781V35.1861H367.364V40.0384H376.075V43.5881H367.364V48.4503H376.82V52H363.059ZM383.664 36.7273L386.468 42.0668L389.341 36.7273H393.686L389.262 44.3636L393.806 52H389.48L386.468 46.7202L383.505 52H379.13L383.664 44.3636L379.289 36.7273H383.664ZM396.202 57.7273V36.7273H400.378V39.2926H400.567C400.753 38.8816 401.021 38.464 401.373 38.0398C401.73 37.6089 402.194 37.2509 402.765 36.9659C403.341 36.6742 404.057 36.5284 404.912 36.5284C406.026 36.5284 407.053 36.8201 407.995 37.4034C408.936 37.9801 409.688 38.8518 410.252 40.0185C410.815 41.1785 411.097 42.6335 411.097 44.3835C411.097 46.0871 410.822 47.5256 410.272 48.6989C409.728 49.8655 408.986 50.7505 408.044 51.3537C407.11 51.9503 406.062 52.2486 404.902 52.2486C404.08 52.2486 403.381 52.1127 402.804 51.8409C402.234 51.5691 401.767 51.2277 401.402 50.8168C401.038 50.3991 400.759 49.9782 400.567 49.554H400.438V57.7273H396.202ZM400.348 44.3636C400.348 45.2718 400.474 46.0639 400.726 46.7401C400.978 47.4162 401.343 47.9432 401.82 48.321C402.297 48.6922 402.877 48.8778 403.56 48.8778C404.249 48.8778 404.833 48.6889 405.31 48.3111C405.787 47.9266 406.149 47.3963 406.394 46.7202C406.646 46.0374 406.772 45.2519 406.772 44.3636C406.772 43.482 406.649 42.7064 406.404 42.0369C406.158 41.3674 405.797 40.8437 405.32 40.4659C404.843 40.0881 404.256 39.8991 403.56 39.8991C402.871 39.8991 402.287 40.0814 401.81 40.446C401.339 40.8106 400.978 41.3277 400.726 41.9972C400.474 42.6667 400.348 43.4555 400.348 44.3636ZM418.157 31.6364V52H413.921V31.6364H418.157ZM428.45 52.2983C426.906 52.2983 425.57 51.9702 424.443 51.3139C423.323 50.651 422.458 49.7296 421.848 48.5497C421.238 47.3632 420.933 45.9877 420.933 44.4233C420.933 42.8456 421.238 41.4669 421.848 40.2869C422.458 39.1004 423.323 38.179 424.443 37.5227C425.57 36.8598 426.906 36.5284 428.45 36.5284C429.995 36.5284 431.327 36.8598 432.447 37.5227C433.574 38.179 434.443 39.1004 435.053 40.2869C435.662 41.4669 435.967 42.8456 435.967 44.4233C435.967 45.9877 435.662 47.3632 435.053 48.5497C434.443 49.7296 433.574 50.651 432.447 51.3139C431.327 51.9702 429.995 52.2983 428.45 52.2983ZM428.47 49.017C429.173 49.017 429.759 48.8182 430.23 48.4205C430.701 48.0161 431.055 47.4659 431.294 46.7699C431.539 46.0739 431.662 45.2817 431.662 44.3935C431.662 43.5052 431.539 42.7131 431.294 42.017C431.055 41.321 430.701 40.7708 430.23 40.3665C429.759 39.9621 429.173 39.7599 428.47 39.7599C427.761 39.7599 427.164 39.9621 426.68 40.3665C426.203 40.7708 425.842 41.321 425.597 42.017C425.358 42.7131 425.239 43.5052 425.239 44.3935C425.239 45.2817 425.358 46.0739 425.597 46.7699C425.842 47.4659 426.203 48.0161 426.68 48.4205C427.164 48.8182 427.761 49.017 428.47 49.017ZM438.722 52V36.7273H442.828V39.392H442.987C443.266 38.4441 443.733 37.7282 444.389 37.2443C445.045 36.7538 445.801 36.5085 446.656 36.5085C446.868 36.5085 447.097 36.5218 447.342 36.5483C447.588 36.5748 447.803 36.6113 447.989 36.6577V40.4162C447.79 40.3565 447.515 40.3035 447.163 40.2571C446.812 40.2107 446.491 40.1875 446.199 40.1875C445.576 40.1875 445.019 40.3234 444.528 40.5952C444.045 40.8603 443.66 41.2315 443.375 41.7088C443.097 42.1861 442.957 42.7363 442.957 43.3594V52H438.722ZM454.096 52.2884C453.122 52.2884 452.253 52.1193 451.491 51.7812C450.729 51.4366 450.126 50.9295 449.681 50.2599C449.244 49.5838 449.025 48.742 449.025 47.7344C449.025 46.8859 449.181 46.1733 449.493 45.5966C449.804 45.0199 450.228 44.5559 450.765 44.2045C451.302 43.8532 451.912 43.5881 452.595 43.4091C453.284 43.2301 454.007 43.1042 454.762 43.0312C455.651 42.9384 456.367 42.8523 456.91 42.7727C457.454 42.6866 457.848 42.5606 458.093 42.3949C458.339 42.2292 458.461 41.9839 458.461 41.6591V41.5994C458.461 40.9697 458.262 40.4825 457.865 40.1378C457.474 39.7931 456.917 39.6207 456.194 39.6207C455.432 39.6207 454.825 39.7898 454.375 40.1278C453.924 40.4593 453.626 40.8769 453.48 41.3807L449.562 41.0625C449.761 40.1345 450.152 39.3324 450.735 38.6562C451.319 37.9735 452.071 37.4498 452.993 37.0852C453.921 36.714 454.994 36.5284 456.214 36.5284C457.063 36.5284 457.875 36.6278 458.65 36.8267C459.432 37.0256 460.125 37.3338 460.728 37.7514C461.338 38.169 461.819 38.706 462.17 39.3622C462.521 40.0118 462.697 40.7907 462.697 41.6989V52H458.68V49.8821H458.561C458.315 50.3594 457.987 50.7803 457.576 51.1449C457.165 51.5028 456.672 51.7846 456.095 51.9901C455.518 52.1889 454.852 52.2884 454.096 52.2884ZM455.309 49.3651C455.932 49.3651 456.483 49.2424 456.96 48.9972C457.437 48.7453 457.812 48.4072 458.083 47.983C458.355 47.5587 458.491 47.0781 458.491 46.5412V44.9205C458.359 45.0066 458.176 45.0862 457.944 45.1591C457.719 45.2254 457.464 45.2884 457.179 45.348C456.894 45.401 456.609 45.4508 456.324 45.4972C456.038 45.5369 455.78 45.5734 455.548 45.6065C455.051 45.6795 454.617 45.7955 454.245 45.9545C453.874 46.1136 453.586 46.3291 453.38 46.6009C453.175 46.866 453.072 47.1974 453.072 47.5952C453.072 48.1719 453.281 48.6127 453.699 48.9176C454.123 49.2159 454.66 49.3651 455.309 49.3651ZM472.884 52.2983C471.319 52.2983 469.974 51.9669 468.847 51.304C467.727 50.6345 466.865 49.7064 466.262 48.5199C465.665 47.3333 465.367 45.9678 465.367 44.4233C465.367 42.8589 465.668 41.4867 466.272 40.3068C466.882 39.1203 467.747 38.1955 468.867 37.5327C469.987 36.8632 471.319 36.5284 472.864 36.5284C474.196 36.5284 475.363 36.7704 476.364 37.2543C477.365 37.7382 478.157 38.4176 478.74 39.2926C479.324 40.1676 479.645 41.1951 479.705 42.375H475.708C475.595 41.6127 475.297 40.9995 474.813 40.5355C474.336 40.0649 473.709 39.8295 472.934 39.8295C472.277 39.8295 471.704 40.0085 471.213 40.3665C470.73 40.7178 470.352 41.2315 470.08 41.9077C469.808 42.5838 469.672 43.4025 469.672 44.3636C469.672 45.3381 469.805 46.1667 470.07 46.8494C470.342 47.5322 470.723 48.0526 471.213 48.4105C471.704 48.7685 472.277 48.9474 472.934 48.9474C473.417 48.9474 473.852 48.848 474.236 48.6491C474.627 48.4503 474.949 48.1619 475.201 47.7841C475.459 47.3996 475.628 46.9389 475.708 46.402H479.705C479.639 47.5687 479.32 48.5961 478.75 49.4844C478.187 50.366 477.408 51.0554 476.414 51.5526C475.419 52.0497 474.243 52.2983 472.884 52.2983ZM471.89 51.9205H473.838L473.679 52.7855C474.362 52.8916 474.919 53.1468 475.35 53.5511C475.787 53.9555 476.009 54.5057 476.016 55.2017C476.023 56.1894 475.565 56.9749 474.644 57.5582C473.722 58.1482 472.43 58.4432 470.766 58.4432L470.726 56.554C471.561 56.554 472.214 56.4512 472.685 56.2457C473.162 56.0469 473.411 55.7353 473.431 55.3111C473.444 54.9067 473.288 54.5985 472.963 54.3864C472.639 54.1742 472.132 54.0251 471.442 53.9389L471.89 51.9205ZM486.772 52.2884C485.798 52.2884 484.929 52.1193 484.167 51.7812C483.405 51.4366 482.801 50.9295 482.357 50.2599C481.92 49.5838 481.701 48.742 481.701 47.7344C481.701 46.8859 481.857 46.1733 482.168 45.5966C482.48 45.0199 482.904 44.5559 483.441 44.2045C483.978 43.8532 484.588 43.5881 485.271 43.4091C485.96 43.2301 486.683 43.1042 487.438 43.0312C488.326 42.9384 489.042 42.8523 489.586 42.7727C490.129 42.6866 490.524 42.5606 490.769 42.3949C491.014 42.2292 491.137 41.9839 491.137 41.6591V41.5994C491.137 40.9697 490.938 40.4825 490.54 40.1378C490.149 39.7931 489.593 39.6207 488.87 39.6207C488.108 39.6207 487.501 39.7898 487.05 40.1278C486.6 40.4593 486.301 40.8769 486.156 41.3807L482.238 41.0625C482.437 40.1345 482.828 39.3324 483.411 38.6562C483.995 37.9735 484.747 37.4498 485.668 37.0852C486.596 36.714 487.67 36.5284 488.89 36.5284C489.738 36.5284 490.55 36.6278 491.326 36.8267C492.108 37.0256 492.801 37.3338 493.404 37.7514C494.014 38.169 494.495 38.706 494.846 39.3622C495.197 40.0118 495.373 40.7907 495.373 41.6989V52H491.356V49.8821H491.237C490.991 50.3594 490.663 50.7803 490.252 51.1449C489.841 51.5028 489.347 51.7846 488.771 51.9901C488.194 52.1889 487.528 52.2884 486.772 52.2884ZM487.985 49.3651C488.608 49.3651 489.158 49.2424 489.636 48.9972C490.113 48.7453 490.487 48.4072 490.759 47.983C491.031 47.5587 491.167 47.0781 491.167 46.5412V44.9205C491.034 45.0066 490.852 45.0862 490.62 45.1591C490.395 45.2254 490.139 45.2884 489.854 45.348C489.569 45.401 489.284 45.4508 488.999 45.4972C488.714 45.5369 488.456 45.5734 488.224 45.6065C487.727 45.6795 487.292 45.7955 486.921 45.9545C486.55 46.1136 486.262 46.3291 486.056 46.6009C485.851 46.866 485.748 47.1974 485.748 47.5952C485.748 48.1719 485.957 48.6127 486.374 48.9176C486.799 49.2159 487.335 49.3651 487.985 49.3651ZM486.205 34.848L483.849 34.8182C483.849 33.5521 484.16 32.581 484.783 31.9048C485.413 31.2287 486.179 30.8873 487.08 30.8807C487.544 30.8807 487.942 30.9569 488.273 31.1094C488.612 31.2552 488.913 31.4276 489.178 31.6264C489.45 31.8253 489.709 32.0009 489.954 32.1534C490.199 32.2992 490.464 32.3722 490.749 32.3722C491.134 32.3655 491.425 32.223 491.624 31.9446C491.83 31.6596 491.933 31.2884 491.933 30.831L494.249 30.9006C494.236 32.1534 493.918 33.1212 493.295 33.804C492.672 34.4801 491.913 34.8215 491.018 34.8281C490.521 34.8281 490.103 34.7552 489.765 34.6094C489.433 34.4569 489.142 34.2846 488.89 34.0923C488.638 33.8935 488.393 33.7178 488.154 33.5653C487.915 33.4129 487.647 33.3366 487.349 33.3366C487.004 33.3366 486.726 33.4725 486.513 33.7443C486.308 34.0161 486.205 34.384 486.205 34.848ZM505.56 52.2983C504.015 52.2983 502.679 51.9702 501.553 51.3139C500.432 50.651 499.567 49.7296 498.957 48.5497C498.348 47.3632 498.043 45.9877 498.043 44.4233C498.043 42.8456 498.348 41.4669 498.957 40.2869C499.567 39.1004 500.432 38.179 501.553 37.5227C502.679 36.8598 504.015 36.5284 505.56 36.5284C507.104 36.5284 508.437 36.8598 509.557 37.5227C510.684 38.179 511.552 39.1004 512.162 40.2869C512.772 41.4669 513.077 42.8456 513.077 44.4233C513.077 45.9877 512.772 47.3632 512.162 48.5497C511.552 49.7296 510.684 50.651 509.557 51.3139C508.437 51.9702 507.104 52.2983 505.56 52.2983ZM505.58 49.017C506.282 49.017 506.869 48.8182 507.339 48.4205C507.81 48.0161 508.165 47.4659 508.403 46.7699C508.649 46.0739 508.771 45.2817 508.771 44.3935C508.771 43.5052 508.649 42.7131 508.403 42.017C508.165 41.321 507.81 40.7708 507.339 40.3665C506.869 39.9621 506.282 39.7599 505.58 39.7599C504.87 39.7599 504.274 39.9621 503.79 40.3665C503.313 40.7708 502.951 41.321 502.706 42.017C502.467 42.7131 502.348 43.5052 502.348 44.3935C502.348 45.2817 502.467 46.0739 502.706 46.7699C502.951 47.4659 503.313 48.0161 503.79 48.4205C504.274 48.8182 504.87 49.017 505.58 49.017ZM527.939 52.2486C526.779 52.2486 525.729 51.9503 524.787 51.3537C523.853 50.7505 523.11 49.8655 522.56 48.6989C522.016 47.5256 521.745 46.0871 521.745 44.3835C521.745 42.6335 522.026 41.1785 522.59 40.0185C523.153 38.8518 523.902 37.9801 524.837 37.4034C525.778 36.8201 526.809 36.5284 527.929 36.5284C528.784 36.5284 529.497 36.6742 530.067 36.9659C530.644 37.2509 531.108 37.6089 531.459 38.0398C531.817 38.464 532.089 38.8816 532.275 39.2926H532.404V31.6364H536.63V52H532.453V49.554H532.275C532.076 49.9782 531.794 50.3991 531.429 50.8168C531.071 51.2277 530.604 51.5691 530.027 51.8409C529.457 52.1127 528.761 52.2486 527.939 52.2486ZM529.282 48.8778C529.964 48.8778 530.541 48.6922 531.012 48.321C531.489 47.9432 531.854 47.4162 532.105 46.7401C532.364 46.0639 532.493 45.2718 532.493 44.3636C532.493 43.4555 532.367 42.6667 532.115 41.9972C531.864 41.3277 531.499 40.8106 531.022 40.446C530.544 40.0814 529.964 39.8991 529.282 39.8991C528.586 39.8991 527.999 40.0881 527.522 40.4659C527.044 40.8437 526.683 41.3674 526.438 42.0369C526.193 42.7064 526.07 43.482 526.07 44.3636C526.07 45.2519 526.193 46.0374 526.438 46.7202C526.69 47.3963 527.051 47.9266 527.522 48.3111C527.999 48.6889 528.586 48.8778 529.282 48.8778ZM547.072 52.2983C545.501 52.2983 544.149 51.9801 543.016 51.3438C541.889 50.7008 541.02 49.7926 540.411 48.6193C539.801 47.4394 539.496 46.044 539.496 44.4332C539.496 42.8622 539.801 41.4834 540.411 40.2969C541.02 39.1103 541.879 38.1856 542.986 37.5227C544.099 36.8598 545.405 36.5284 546.903 36.5284C547.911 36.5284 548.849 36.6908 549.717 37.0156C550.592 37.3338 551.355 37.8144 552.004 38.4574C552.661 39.1004 553.171 39.9091 553.536 40.8835C553.9 41.8513 554.082 42.9848 554.082 44.2841V45.4474H541.186V42.8224H550.095C550.095 42.2126 549.963 41.6723 549.697 41.2017C549.432 40.7311 549.064 40.3632 548.594 40.098C548.13 39.8262 547.589 39.6903 546.973 39.6903C546.33 39.6903 545.76 39.8395 545.263 40.1378C544.772 40.4295 544.388 40.8239 544.109 41.321C543.831 41.8116 543.688 42.3584 543.682 42.9616V45.4574C543.682 46.2131 543.821 46.866 544.099 47.4162C544.384 47.9664 544.786 48.3906 545.303 48.6889C545.82 48.9872 546.433 49.1364 547.142 49.1364C547.613 49.1364 548.044 49.0701 548.435 48.9375C548.826 48.8049 549.161 48.6061 549.439 48.3409C549.717 48.0758 549.929 47.7509 550.075 47.3665L553.993 47.625C553.794 48.5663 553.386 49.3883 552.77 50.0909C552.16 50.7869 551.371 51.3305 550.403 51.7216C549.442 52.1061 548.332 52.2983 547.072 52.2983ZM570.625 52H563.407V31.6364H570.685C572.733 31.6364 574.497 32.044 575.975 32.8594C577.453 33.6681 578.59 34.8314 579.385 36.3494C580.187 37.8674 580.588 39.6837 580.588 41.7983C580.588 43.9195 580.187 45.7424 579.385 47.267C578.59 48.7917 577.446 49.9616 575.955 50.777C574.47 51.5923 572.694 52 570.625 52ZM567.712 48.3111H570.446C571.719 48.3111 572.79 48.0857 573.658 47.6349C574.533 47.1776 575.189 46.4716 575.627 45.517C576.071 44.5559 576.293 43.3163 576.293 41.7983C576.293 40.2936 576.071 39.0639 575.627 38.1094C575.189 37.1548 574.536 36.4522 573.668 36.0014C572.8 35.5507 571.729 35.3253 570.456 35.3253H567.712V48.3111ZM588.053 52.2884C587.079 52.2884 586.21 52.1193 585.448 51.7812C584.686 51.4366 584.083 50.9295 583.638 50.2599C583.201 49.5838 582.982 48.742 582.982 47.7344C582.982 46.8859 583.138 46.1733 583.45 45.5966C583.761 45.0199 584.185 44.5559 584.722 44.2045C585.259 43.8532 585.869 43.5881 586.552 43.4091C587.241 43.2301 587.964 43.1042 588.719 43.0312C589.608 42.9384 590.324 42.8523 590.867 42.7727C591.411 42.6866 591.805 42.5606 592.05 42.3949C592.296 42.2292 592.418 41.9839 592.418 41.6591V41.5994C592.418 40.9697 592.219 40.4825 591.822 40.1378C591.431 39.7931 590.874 39.6207 590.151 39.6207C589.389 39.6207 588.782 39.7898 588.332 40.1278C587.881 40.4593 587.583 40.8769 587.437 41.3807L583.519 41.0625C583.718 40.1345 584.109 39.3324 584.692 38.6562C585.276 37.9735 586.028 37.4498 586.95 37.0852C587.878 36.714 588.951 36.5284 590.171 36.5284C591.02 36.5284 591.832 36.6278 592.607 36.8267C593.389 37.0256 594.082 37.3338 594.685 37.7514C595.295 38.169 595.776 38.706 596.127 39.3622C596.478 40.0118 596.654 40.7907 596.654 41.6989V52H592.637V49.8821H592.518C592.272 50.3594 591.944 50.7803 591.533 51.1449C591.122 51.5028 590.629 51.7846 590.052 51.9901C589.475 52.1889 588.809 52.2884 588.053 52.2884ZM589.266 49.3651C589.889 49.3651 590.44 49.2424 590.917 48.9972C591.394 48.7453 591.769 48.4072 592.04 47.983C592.312 47.5587 592.448 47.0781 592.448 46.5412V44.9205C592.316 45.0066 592.133 45.0862 591.901 45.1591C591.676 45.2254 591.421 45.2884 591.136 45.348C590.851 45.401 590.566 45.4508 590.281 45.4972C589.996 45.5369 589.737 45.5734 589.505 45.6065C589.008 45.6795 588.574 45.7955 588.202 45.9545C587.831 46.1136 587.543 46.3291 587.337 46.6009C587.132 46.866 587.029 47.1974 587.029 47.5952C587.029 48.1719 587.238 48.6127 587.656 48.9176C588.08 49.2159 588.617 49.3651 589.266 49.3651ZM605.568 52.2486C604.408 52.2486 603.357 51.9503 602.416 51.3537C601.482 50.7505 600.739 49.8655 600.189 48.6989C599.645 47.5256 599.374 46.0871 599.374 44.3835C599.374 42.6335 599.655 41.1785 600.219 40.0185C600.782 38.8518 601.531 37.9801 602.466 37.4034C603.407 36.8201 604.438 36.5284 605.558 36.5284C606.413 36.5284 607.126 36.6742 607.696 36.9659C608.273 37.2509 608.737 37.6089 609.088 38.0398C609.446 38.464 609.718 38.8816 609.903 39.2926H610.033V31.6364H614.259V52H610.082V49.554H609.903C609.705 49.9782 609.423 50.3991 609.058 50.8168C608.7 51.2277 608.233 51.5691 607.656 51.8409C607.086 52.1127 606.39 52.2486 605.568 52.2486ZM606.911 48.8778C607.593 48.8778 608.17 48.6922 608.641 48.321C609.118 47.9432 609.482 47.4162 609.734 46.7401C609.993 46.0639 610.122 45.2718 610.122 44.3636C610.122 43.4555 609.996 42.6667 609.744 41.9972C609.492 41.3277 609.128 40.8106 608.651 40.446C608.173 40.0814 607.593 39.8991 606.911 39.8991C606.214 39.8991 605.628 40.0881 605.151 40.4659C604.673 40.8437 604.312 41.3674 604.067 42.0369C603.821 42.7064 603.699 43.482 603.699 44.3636C603.699 45.2519 603.821 46.0374 604.067 46.7202C604.319 47.3963 604.68 47.9266 605.151 48.3111C605.628 48.6889 606.214 48.8778 606.911 48.8778ZM624.642 52.2983C623.097 52.2983 621.761 51.9702 620.635 51.3139C619.514 50.651 618.649 49.7296 618.039 48.5497C617.43 47.3632 617.125 45.9877 617.125 44.4233C617.125 42.8456 617.43 41.4669 618.039 40.2869C618.649 39.1004 619.514 38.179 620.635 37.5227C621.761 36.8598 623.097 36.5284 624.642 36.5284C626.186 36.5284 627.519 36.8598 628.639 37.5227C629.766 38.179 630.634 39.1004 631.244 40.2869C631.854 41.4669 632.159 42.8456 632.159 44.4233C632.159 45.9877 631.854 47.3632 631.244 48.5497C630.634 49.7296 629.766 50.651 628.639 51.3139C627.519 51.9702 626.186 52.2983 624.642 52.2983ZM624.662 49.017C625.364 49.017 625.951 48.8182 626.422 48.4205C626.892 48.0161 627.247 47.4659 627.485 46.7699C627.731 46.0739 627.853 45.2817 627.853 44.3935C627.853 43.5052 627.731 42.7131 627.485 42.017C627.247 41.321 626.892 40.7708 626.422 40.3665C625.951 39.9621 625.364 39.7599 624.662 39.7599C623.952 39.7599 623.356 39.9621 622.872 40.3665C622.395 40.7708 622.033 41.321 621.788 42.017C621.549 42.7131 621.43 43.5052 621.43 44.3935C621.43 45.2817 621.549 46.0739 621.788 46.7699C622.033 47.4659 622.395 48.0161 622.872 48.4205C623.356 48.8182 623.952 49.017 624.662 49.017ZM647.62 41.0824L643.743 41.321C643.676 40.9896 643.534 40.6913 643.315 40.4261C643.096 40.1544 642.808 39.9389 642.45 39.7798C642.099 39.6141 641.678 39.5312 641.187 39.5312C640.531 39.5312 639.977 39.6705 639.527 39.9489C639.076 40.2206 638.85 40.5852 638.85 41.0426C638.85 41.4072 638.996 41.7154 639.288 41.9673C639.58 42.2192 640.08 42.4214 640.789 42.5739L643.554 43.1307C645.038 43.4356 646.145 43.9261 646.875 44.6023C647.604 45.2784 647.968 46.1667 647.968 47.267C647.968 48.268 647.673 49.1463 647.083 49.902C646.5 50.6577 645.698 51.2476 644.677 51.6719C643.663 52.0895 642.493 52.2983 641.167 52.2983C639.145 52.2983 637.535 51.8774 636.335 51.0355C635.142 50.187 634.442 49.0336 634.237 47.5753L638.403 47.3565C638.529 47.973 638.834 48.4437 639.318 48.7685C639.802 49.0866 640.422 49.2457 641.177 49.2457C641.92 49.2457 642.516 49.1032 642.967 48.8182C643.424 48.5265 643.656 48.152 643.663 47.6946C643.656 47.3101 643.494 46.9953 643.176 46.75C642.858 46.4981 642.367 46.3059 641.704 46.1733L639.059 45.6463C637.568 45.348 636.458 44.831 635.728 44.0952C635.006 43.3594 634.645 42.4214 634.645 41.2812C634.645 40.3002 634.91 39.455 635.44 38.7457C635.977 38.0365 636.729 37.4896 637.697 37.1051C638.672 36.7206 639.812 36.5284 641.118 36.5284C643.047 36.5284 644.565 36.9361 645.672 37.7514C646.785 38.5668 647.435 39.6771 647.62 41.0824Z" fill="#1B365D"/>
<g filter="url(#filter0_d_11_55)">
<g clip-path="url(#clip1_11_55)">
<path d="M110 105C110 100.582 113.582 97 118 97H1241C1245.42 97 1249 100.582 1249 105V189C1249 193.418 1245.42 197 1241 197H118C113.582 197 110 193.418 110 189V105Z" fill="white"/>
<path d="M149 135L165 135" stroke="#33363F" stroke-width="2" stroke-linecap="round"/>
<path d="M133 135L141 135" stroke="#33363F" stroke-width="2" stroke-linecap="round"/>
<path d="M159 155L165 155" stroke="#33363F" stroke-width="2" stroke-linecap="round"/>
<path d="M133 155L149 155" stroke="#33363F" stroke-width="2" stroke-linecap="round"/>
<circle cx="145" cy="135" r="4" transform="rotate(90 145 135)" stroke="#33363F" stroke-width="2" stroke-linecap="round"/>
<circle cx="155" cy="155" r="4" transform="rotate(90 155 155)" stroke="#33363F" stroke-width="2" stroke-linecap="round"/>
<path d="M1095.57 140.424C1096 140.469 1096.33 140.664 1096.6 140.869C1096.89 141.086 1097.19 141.394 1097.51 141.707L1099.29 143.494C1099.61 143.807 1099.91 144.112 1100.13 144.396C1100.37 144.704 1100.59 145.102 1100.59 145.615C1100.59 146.129 1100.37 146.527 1100.13 146.834C1099.91 147.118 1099.61 147.423 1099.29 147.736L1087.25 159.777C1087.1 159.934 1086.89 160.15 1086.63 160.299C1086.36 160.448 1086.07 160.513 1085.86 160.566L1081.05 161.768C1080.9 161.805 1080.68 161.863 1080.49 161.882C1080.28 161.902 1079.83 161.909 1079.46 161.54C1079.09 161.171 1079.1 160.719 1079.12 160.513C1079.14 160.318 1079.2 160.097 1079.23 159.949L1080.43 155.141C1080.49 154.925 1080.55 154.636 1080.7 154.372L1080.82 154.186C1080.95 154.009 1081.1 153.865 1081.22 153.747L1093.26 141.707C1093.58 141.394 1093.88 141.086 1094.17 140.869C1094.47 140.635 1094.87 140.414 1095.38 140.414L1095.57 140.424Z" stroke="#33363F" stroke-width="2"/>
<path d="M1087.5 142.5L1090.5 140.5L1093.5 143.5L1091.5 146.5L1087.5 142.5Z" fill="#33363F"/>
<path d="M1110.76 158V143.455H1112.52V156.438H1119.28V158H1110.76ZM1121.78 158V147.091H1123.46V158H1121.78ZM1122.64 145.273C1122.31 145.273 1122.03 145.161 1121.79 144.939C1121.56 144.716 1121.44 144.449 1121.44 144.136C1121.44 143.824 1121.56 143.556 1121.79 143.334C1122.03 143.111 1122.31 143 1122.64 143C1122.96 143 1123.24 143.111 1123.47 143.334C1123.71 143.556 1123.83 143.824 1123.83 144.136C1123.83 144.449 1123.71 144.716 1123.47 144.939C1123.24 145.161 1122.96 145.273 1122.64 145.273ZM1126.53 158V147.091H1128.15V148.795H1128.29C1128.52 148.213 1128.89 147.761 1129.39 147.439C1129.9 147.112 1130.51 146.949 1131.22 146.949C1131.94 146.949 1132.54 147.112 1133.01 147.439C1133.5 147.761 1133.87 148.213 1134.14 148.795H1134.26C1134.54 148.232 1134.96 147.785 1135.51 147.453C1136.07 147.117 1136.74 146.949 1137.52 146.949C1138.5 146.949 1139.3 147.254 1139.92 147.865C1140.54 148.471 1140.85 149.416 1140.85 150.699V158H1139.17V150.699C1139.17 149.894 1138.95 149.319 1138.51 148.973C1138.07 148.627 1137.55 148.455 1136.96 148.455C1136.19 148.455 1135.6 148.687 1135.17 149.151C1134.75 149.61 1134.54 150.192 1134.54 150.898V158H1132.84V150.528C1132.84 149.908 1132.64 149.409 1132.23 149.03C1131.83 148.646 1131.31 148.455 1130.68 148.455C1130.24 148.455 1129.84 148.571 1129.46 148.803C1129.08 149.035 1128.78 149.357 1128.55 149.768C1128.32 150.176 1128.21 150.647 1128.21 151.182V158H1126.53ZM1143.91 162.091V147.091H1145.53V148.824H1145.73C1145.85 148.634 1146.02 148.393 1146.24 148.099C1146.47 147.801 1146.78 147.536 1147.19 147.304C1147.61 147.067 1148.17 146.949 1148.88 146.949C1149.8 146.949 1150.61 147.179 1151.31 147.638C1152.01 148.097 1152.56 148.748 1152.95 149.591C1153.35 150.434 1153.54 151.428 1153.54 152.574C1153.54 153.729 1153.35 154.731 1152.95 155.578C1152.56 156.421 1152.02 157.074 1151.32 157.538C1150.62 157.998 1149.82 158.227 1148.91 158.227C1148.21 158.227 1147.65 158.111 1147.23 157.879C1146.81 157.643 1146.48 157.375 1146.26 157.077C1146.03 156.774 1145.85 156.523 1145.73 156.324H1145.59V162.091H1143.91ZM1145.56 152.545C1145.56 153.369 1145.68 154.096 1145.92 154.726C1146.16 155.351 1146.52 155.841 1146.98 156.196C1147.45 156.546 1148.01 156.722 1148.69 156.722C1149.39 156.722 1149.97 156.537 1150.44 156.168C1150.91 155.794 1151.27 155.292 1151.51 154.662C1151.75 154.027 1151.87 153.322 1151.87 152.545C1151.87 151.778 1151.75 151.087 1151.51 150.472C1151.28 149.851 1150.93 149.361 1150.45 149.001C1149.99 148.637 1149.4 148.455 1148.69 148.455C1148 148.455 1147.43 148.627 1146.97 148.973C1146.5 149.314 1146.15 149.792 1145.92 150.408C1145.68 151.018 1145.56 151.731 1145.56 152.545ZM1159.31 158.256C1158.62 158.256 1157.99 158.125 1157.43 157.865C1156.87 157.6 1156.42 157.219 1156.09 156.722C1155.75 156.22 1155.59 155.614 1155.59 154.903C1155.59 154.278 1155.71 153.772 1155.96 153.384C1156.2 152.991 1156.53 152.683 1156.95 152.46C1157.36 152.238 1157.81 152.072 1158.31 151.963C1158.81 151.849 1159.32 151.759 1159.82 151.693C1160.48 151.608 1161.02 151.544 1161.43 151.501C1161.85 151.454 1162.15 151.376 1162.34 151.267C1162.54 151.158 1162.63 150.969 1162.63 150.699V150.642C1162.63 149.941 1162.44 149.397 1162.06 149.009C1161.68 148.62 1161.11 148.426 1160.33 148.426C1159.53 148.426 1158.91 148.601 1158.45 148.952C1158 149.302 1157.68 149.676 1157.49 150.074L1155.9 149.506C1156.19 148.843 1156.56 148.327 1157.04 147.957C1157.52 147.583 1158.04 147.323 1158.6 147.176C1159.17 147.025 1159.73 146.949 1160.28 146.949C1160.63 146.949 1161.03 146.991 1161.48 147.077C1161.94 147.157 1162.39 147.325 1162.81 147.581C1163.24 147.837 1163.6 148.223 1163.88 148.739C1164.17 149.255 1164.31 149.946 1164.31 150.812V158H1162.63V156.523H1162.55C1162.44 156.759 1162.25 157.013 1161.98 157.283C1161.72 157.553 1161.36 157.782 1160.92 157.972C1160.48 158.161 1159.95 158.256 1159.31 158.256ZM1159.57 156.75C1160.23 156.75 1160.79 156.62 1161.24 156.359C1161.7 156.099 1162.05 155.763 1162.28 155.351C1162.52 154.939 1162.63 154.506 1162.63 154.051V152.517C1162.56 152.602 1162.41 152.68 1162.17 152.751C1161.93 152.818 1161.65 152.877 1161.34 152.929C1161.03 152.976 1160.73 153.019 1160.44 153.057C1160.15 153.09 1159.92 153.118 1159.74 153.142C1159.3 153.199 1158.89 153.291 1158.52 153.419C1158.14 153.542 1157.84 153.729 1157.61 153.98C1157.38 154.226 1157.27 154.562 1157.27 154.989C1157.27 155.571 1157.48 156.011 1157.91 156.31C1158.35 156.603 1158.9 156.75 1159.57 156.75ZM1167.37 158V147.091H1168.99V148.739H1169.1C1169.3 148.199 1169.66 147.761 1170.18 147.425C1170.7 147.089 1171.29 146.92 1171.94 146.92C1172.07 146.92 1172.22 146.923 1172.41 146.928C1172.59 146.932 1172.73 146.939 1172.82 146.949V148.653C1172.77 148.639 1172.64 148.618 1172.43 148.589C1172.24 148.556 1172.02 148.54 1171.8 148.54C1171.27 148.54 1170.8 148.651 1170.38 148.874C1169.97 149.091 1169.64 149.394 1169.4 149.783C1169.16 150.166 1169.05 150.604 1169.05 151.097V158H1167.37ZM1185.29 147.091V148.511H1179.41V147.091H1185.29ZM1181.18 158V145.585C1181.18 144.96 1181.32 144.439 1181.62 144.023C1181.91 143.606 1182.29 143.294 1182.76 143.085C1183.23 142.877 1183.72 142.773 1184.24 142.773C1184.66 142.773 1184.99 142.806 1185.25 142.872C1185.51 142.938 1185.71 143 1185.83 143.057L1185.35 144.506C1185.27 144.477 1185.15 144.442 1185 144.399C1184.85 144.357 1184.66 144.335 1184.41 144.335C1183.86 144.335 1183.46 144.475 1183.21 144.754C1182.97 145.034 1182.85 145.443 1182.85 145.983V158H1181.18ZM1187.64 158V147.091H1189.32V158H1187.64ZM1188.5 145.273C1188.17 145.273 1187.89 145.161 1187.65 144.939C1187.42 144.716 1187.3 144.449 1187.3 144.136C1187.3 143.824 1187.42 143.556 1187.65 143.334C1187.89 143.111 1188.17 143 1188.5 143C1188.82 143 1189.1 143.111 1189.33 143.334C1189.57 143.556 1189.69 143.824 1189.69 144.136C1189.69 144.449 1189.57 144.716 1189.33 144.939C1189.1 145.161 1188.82 145.273 1188.5 145.273ZM1194.07 143.455V158H1192.39V143.455H1194.07ZM1201.88 147.091V148.511H1196.23V147.091H1201.88ZM1197.87 144.477H1199.55V154.875C1199.55 155.348 1199.62 155.704 1199.76 155.94C1199.9 156.172 1200.08 156.329 1200.3 156.409C1200.52 156.485 1200.75 156.523 1201 156.523C1201.18 156.523 1201.34 156.513 1201.45 156.494C1201.57 156.471 1201.67 156.452 1201.74 156.438L1202.08 157.943C1201.97 157.986 1201.81 158.028 1201.6 158.071C1201.4 158.118 1201.14 158.142 1200.83 158.142C1200.36 158.142 1199.89 158.04 1199.44 157.837C1198.99 157.633 1198.61 157.323 1198.31 156.906C1198.02 156.49 1197.87 155.964 1197.87 155.33V144.477ZM1204.4 158V147.091H1206.02V148.739H1206.13C1206.33 148.199 1206.69 147.761 1207.21 147.425C1207.73 147.089 1208.32 146.92 1208.98 146.92C1209.1 146.92 1209.25 146.923 1209.44 146.928C1209.62 146.932 1209.76 146.939 1209.86 146.949V148.653C1209.8 148.639 1209.67 148.618 1209.47 148.589C1209.27 148.556 1209.06 148.54 1208.83 148.54C1208.3 148.54 1207.83 148.651 1207.41 148.874C1207 149.091 1206.67 149.394 1206.43 149.783C1206.2 150.166 1206.08 150.604 1206.08 151.097V158H1204.4ZM1215.94 158.227C1214.96 158.227 1214.09 157.993 1213.35 157.524C1212.61 157.055 1212.03 156.4 1211.62 155.557C1211.21 154.714 1211 153.729 1211 152.602C1211 151.466 1211.21 150.474 1211.62 149.626C1212.03 148.779 1212.61 148.121 1213.35 147.652C1214.09 147.183 1214.96 146.949 1215.94 146.949C1216.93 146.949 1217.79 147.183 1218.53 147.652C1219.27 148.121 1219.85 148.779 1220.26 149.626C1220.68 150.474 1220.89 151.466 1220.89 152.602C1220.89 153.729 1220.68 154.714 1220.26 155.557C1219.85 156.4 1219.27 157.055 1218.53 157.524C1217.79 157.993 1216.93 158.227 1215.94 158.227ZM1215.94 156.722C1216.69 156.722 1217.31 156.53 1217.79 156.146C1218.27 155.763 1218.63 155.259 1218.86 154.634C1219.09 154.009 1219.21 153.331 1219.21 152.602C1219.21 151.873 1219.09 151.194 1218.86 150.564C1218.63 149.934 1218.27 149.425 1217.79 149.037C1217.31 148.649 1216.69 148.455 1215.94 148.455C1215.19 148.455 1214.58 148.649 1214.1 149.037C1213.61 149.425 1213.26 149.934 1213.02 150.564C1212.79 151.194 1212.68 151.873 1212.68 152.602C1212.68 153.331 1212.79 154.009 1213.02 154.634C1213.26 155.259 1213.61 155.763 1214.1 156.146C1214.58 156.53 1215.19 156.722 1215.94 156.722ZM1231.17 149.534L1229.67 149.96C1229.57 149.709 1229.43 149.465 1229.25 149.229C1229.07 148.987 1228.82 148.788 1228.51 148.632C1228.2 148.476 1227.8 148.398 1227.31 148.398C1226.64 148.398 1226.08 148.552 1225.64 148.859C1225.2 149.162 1224.98 149.548 1224.98 150.017C1224.98 150.434 1225.13 150.763 1225.43 151.004C1225.74 151.246 1226.21 151.447 1226.85 151.608L1228.47 152.006C1229.45 152.242 1230.17 152.605 1230.65 153.092C1231.13 153.575 1231.37 154.198 1231.37 154.96C1231.37 155.585 1231.19 156.144 1230.83 156.636C1230.48 157.129 1229.98 157.517 1229.34 157.801C1228.7 158.085 1227.96 158.227 1227.11 158.227C1226 158.227 1225.08 157.986 1224.35 157.503C1223.62 157.02 1223.16 156.314 1222.96 155.386L1224.55 154.989C1224.7 155.576 1224.99 156.016 1225.41 156.31C1225.84 156.603 1226.39 156.75 1227.08 156.75C1227.86 156.75 1228.48 156.584 1228.94 156.253C1229.41 155.917 1229.64 155.514 1229.64 155.045C1229.64 154.667 1229.5 154.349 1229.24 154.094C1228.97 153.833 1228.57 153.639 1228.02 153.511L1226.2 153.085C1225.2 152.848 1224.47 152.482 1224 151.984C1223.53 151.482 1223.3 150.855 1223.3 150.102C1223.3 149.487 1223.48 148.942 1223.82 148.469C1224.17 147.995 1224.65 147.624 1225.25 147.354C1225.85 147.084 1226.54 146.949 1227.31 146.949C1228.39 146.949 1229.23 147.186 1229.85 147.659C1230.47 148.133 1230.91 148.758 1231.17 149.534Z" fill="black"/>
<path d="M1109 161.977H1142.55V163.341H1109V161.977ZM1146.95 161.977H1232.36V163.341H1146.95V161.977Z" fill="black"/>
</g>
</g>
<g filter="url(#filter1_d_11_55)">
<path d="M110 218C110 213.582 113.582 210 118 210H1238C1242.42 210 1246 213.582 1246 218V702C1246 706.418 1242.42 710 1238 710H118C113.582 710 110 706.418 110 702V218Z" fill="white"/>
</g>
<path d="M999 28L995 32L999 36" stroke="#33363F" stroke-width="2"/>
<path d="M990.938 28.5C990.167 27.1655 989.859 25.6141 990.06 24.0863C990.261 22.5586 990.961 21.1399 992.05 20.0503C993.14 18.9606 994.559 18.261 996.086 18.0599C997.614 17.8588 999.166 18.1674 1000.5 18.9378C1001.83 19.7083 1002.88 20.8976 1003.47 22.3212C1004.06 23.7449 1004.16 25.3233 1003.76 26.8117C1003.36 28.3002 1002.48 29.6154 1001.26 30.5535C1000.04 31.4915 998.541 32 997 32" stroke="#1B365D" stroke-width="2" stroke-linecap="round"/>
</g>
<defs>
<filter id="filter0_d_11_55" x="100" y="89" width="1159" height="120" filterUnits="userSpaceOnUse" color-interpolation-filters="sRGB">
<feFlood flood-opacity="0" result="BackgroundImageFix"/>
<feColorMatrix in="SourceAlpha" type="matrix" values="0 0 0 0 0 0 0 0 0 0 0 0 0 0 0 0 0 0 127 0" result="hardAlpha"/>
<feOffset dy="2"/>
<feGaussianBlur stdDeviation="5"/>
<feComposite in2="hardAlpha" operator="out"/>
<feColorMatrix type="matrix" values="0 0 0 0 0 0 0 0 0 0 0 0 0 0 0 0 0 0 0.05 0"/>
<feBlend mode="normal" in2="BackgroundImageFix" result="effect1_dropShadow_11_55"/>
<feBlend mode="normal" in="SourceGraphic" in2="effect1_dropShadow_11_55" result="shape"/>
</filter>
<filter id="filter1_d_11_55" x="100" y="202" width="1156" height="520" filterUnits="userSpaceOnUse" color-interpolation-filters="sRGB">
<feFlood flood-opacity="0" result="BackgroundImageFix"/>
<feColorMatrix in="SourceAlpha" type="matrix" values="0 0 0 0 0 0 0 0 0 0 0 0 0 0 0 0 0 0 127 0" result="hardAlpha"/>
<feOffset dy="2"/>
<feGaussianBlur stdDeviation="5"/>
<feComposite in2="hardAlpha" operator="out"/>
<feColorMatrix type="matrix" values="0 0 0 0 0 0 0 0 0 0 0 0 0 0 0 0 0 0 0.05 0"/>
<feBlend mode="normal" in2="BackgroundImageFix" result="effect1_dropShadow_11_55"/>
<feBlend mode="normal" in="SourceGraphic" in2="effect1_dropShadow_11_55" result="shape"/>
</filter>
<clipPath id="clip0_11_55">
<rect width="1280" height="720" fill="white"/>
</clipPath>
<clipPath id="clip1_11_55">
<path d="M110 105C110 100.582 113.582 97 118 97H1241C1245.42 97 1249 100.582 1249 105V189C1249 193.418 1245.42 197 1241 197H118C113.582 197 110 193.418 110 189V105Z" fill="white"/>
</clipPath>
</defs>
</svg>
